<svg xmlns="http://www.w3.org/2000/svg" viewBox="0 0 128 128" width="128" height="128">
  <rect width="128" height="128" rx="28" fill="#2E7D32"/>
  
  <rect x="24" y="24" width="80" height="88" rx="6" fill="#FFFFFF"/>
  
  <rect x="36" y="38" width="56" height="4" rx="2" fill="#E0E0E0"/>
  <rect x="36" y="48" width="46" height="4" rx="2" fill="#E0E0E0"/>
  <rect x="36" y="58" width="56" height="4" rx="2" fill="#E0E0E0"/>
  <rect x="36" y="68" width="40" height="4" rx="2" fill="#E0E0E0"/>
  <rect x="36" y="78" width="56" height="4" rx="2" fill="#E0E0E0"/>
  <rect x="36" y="88" width="46" height="4" rx="2" fill="#E0E0E0"/>
  <rect x="36" y="98" width="56" height="4" rx="2" fill="#E0E0E0"/>
  
  <rect x="50" y="12" width="28" height="16" rx="4" fill="#A5D6A7"/>
  <rect x="40" y="20" width="48" height="8" rx="4" fill="#1B5E20"/>
  
  <g transform="translate(64, 68)" stroke="#FFFFFF" stroke-width="20" stroke-linecap="round">
    <line x1="0" y1="-22" x2="0" y2="22" />
    <line x1="-19" y1="-11" x2="19" y2="11" />
    <line x1="-19" y1="11" x2="19" y2="-11" />
  </g>
  
  <g transform="translate(64, 68)" stroke="#2E7D32" stroke-width="12" stroke-linecap="round">
    <line x1="0" y1="-22" x2="0" y2="22" />
    <line x1="-19" y1="-11" x2="19" y2="11" />
    <line x1="-19" y1="11" x2="19" y2="-11" />
  </g>
</svg>
